<svg width="800" height="800" viewBox="0 0 800 800" xmlns="http://www.w3.org/2000/svg">
  <defs>
    <linearGradient id="bg" x1="0" y1="0" x2="800" y2="800" gradientUnits="userSpaceOnUse">
      <stop offset="0" stop-color="#047857" />
      <stop offset="1" stop-color="#10b981" />
    </linearGradient>
  </defs>

  <rect width="800" height="800" fill="url(#bg)" />

  <circle cx="720" cy="80" r="180" fill="#ffffff" opacity="0.06" />
  <circle cx="40" cy="720" r="220" fill="#ffffff" opacity="0.06" />
  <circle cx="80" cy="60" r="90" fill="#ffffff" opacity="0.05" />

  <g stroke="#ffffff" stroke-width="6" stroke-linecap="round">
    <line x1="140" y1="182" x2="140" y2="140" />
  </g>
  <ellipse cx="120" cy="145" rx="22" ry="12" fill="#ffffff" opacity="0.9" transform="rotate(-40 120 145)" />
  <ellipse cx="160" cy="145" rx="22" ry="12" fill="#ffffff" opacity="0.9" transform="rotate(40 160 145)" />

  <rect x="140" y="260" width="520" height="280" rx="28" fill="#ffffff" opacity="0.12" stroke="#ffffff" stroke-opacity="0.25" stroke-width="2" />

  <g>
    <circle cx="180" cy="340" r="22" fill="#ffffff" />
    <circle cx="250" cy="340" r="22" fill="#ffffff" />
    <circle cx="320" cy="340" r="22" fill="#ffffff" />
    <circle cx="390" cy="340" r="22" fill="none" stroke="#ffffff" stroke-width="3" opacity="0.6" />
    <circle cx="460" cy="340" r="22" fill="#ffffff" />
    <circle cx="530" cy="340" r="22" fill="none" stroke="#ffffff" stroke-width="3" opacity="0.6" />
    <circle cx="600" cy="340" r="22" fill="none" stroke="#ffffff" stroke-width="3" opacity="0.6" />
  </g>

  <rect x="180" y="418" width="280" height="12" rx="6" fill="#ffffff" opacity="0.5" />
  <rect x="180" y="448" width="180" height="12" rx="6" fill="#ffffff" opacity="0.3" />

  <circle cx="620" cy="560" r="54" fill="#ffffff" />
  <path d="M596 561 L614 579 L648 539" fill="none" stroke="#047857" stroke-width="10" stroke-linecap="round" stroke-linejoin="round" />
</svg>
